<?xml version="1.0" standalone="no"?><!DOCTYPE svg PUBLIC "-//W3C//DTD SVG 1.1//EN" "http://www.w3.org/Graphics/SVG/1.1/DTD/svg11.dtd"><svg t="1540196146892" class="icon" style="" viewBox="0 0 1024 1024" version="1.1" xmlns="http://www.w3.org/2000/svg" p-id="7571" xmlns:xlink="http://www.w3.org/1999/xlink" width="200" height="200"><defs><style type="text/css"></style></defs><path d="M695.953104 225.229694c-62.669318-62.687738-145.999189-97.208972-234.629785-97.208972s-171.959443 34.521235-234.629785 97.208972c-129.384789 129.385812-129.384789 339.873758 0 469.258547 62.670342 62.688761 145.998165 97.208972 234.629785 97.208972s171.960467-34.520211 234.629785-97.208972C825.33687 565.103452 825.33687 354.615507 695.953104 225.229694zM666.651754 665.187915c-54.838979 54.837956-127.764895 85.069491-205.328435 85.069491-77.561493 0-150.490479-30.231535-205.328435-85.069491-113.216551-113.197108-113.216551-297.461809 0-410.657894 54.837956-54.837956 127.766942-85.068468 205.328435-85.068468 77.56354 0 150.490479 30.230512 205.328435 85.068468C779.868305 367.727129 779.868305 551.990806 666.651754 665.187915zM890.535801 859.770612 786.929118 756.165975c-8.091282-8.093329-21.204951-8.093329-29.300326 0-8.091282 8.094352-8.091282 21.208021 0 29.302373L861.235474 889.071961c4.047176 4.048199 9.348925 6.072299 14.647605 6.072299 5.302773 0 10.604522-2.0241 14.651698-6.072299C898.629129 880.977609 898.629129 867.86394 890.535801 859.770612z" p-id="7572"></path></svg>